<?xml version="1.0" standalone="no"?>
<!DOCTYPE svg PUBLIC "-//W3C//DTD SVG 20010904//EN"
 "http://www.w3.org/TR/2001/REC-SVG-20010904/DTD/svg10.dtd">
<svg version="1.0" xmlns="http://www.w3.org/2000/svg"
 width="215.000000pt" height="95.000000pt" viewBox="0 0 215.000000 95.000000"
 preserveAspectRatio="xMidYMid meet">
<metadata>
Created by potrace 1.13, written by Peter Selinger 2001-2015
</metadata>
<g transform="translate(0.000000,95.000000) scale(0.100000,-0.100000)"
fill="#000000" stroke="none">
<path d="M234 910 c-66 -26 -84 -117 -35 -172 24 -27 36 -32 72 -32 24 0 52 3
62 8 15 7 17 2 17 -53 l0 -61 65 0 65 0 0 -220 0 -220 163 0 163 0 34 145 c18
80 36 145 39 145 4 0 22 -64 42 -143 l35 -142 78 0 78 0 74 275 c40 151 73
281 74 288 0 10 -17 12 -67 10 l-68 -3 -36 -145 c-19 -80 -38 -151 -40 -159
-3 -8 -20 44 -39 115 -18 71 -37 144 -42 162 l-9 32 -69 0 -69 0 -10 -37 c-6
-21 -23 -91 -38 -155 -15 -65 -30 -118 -33 -118 -6 0 -40 141 -40 163 0 4 16
7 35 7 l35 0 0 70 0 70 -204 0 -205 0 15 28 c18 35 18 46 -2 88 -26 54 -85 77
-140 54z"/>
<path d="M1670 450 l0 -290 48 0 c43 0 50 3 61 26 l12 27 22 -20 c35 -33 63
-43 112 -43 121 0 188 82 188 231 1 87 -27 158 -76 193 -43 31 -136 29 -171
-3 l-26 -24 0 96 0 97 -85 0 -85 0 0 -290z m254 18 c19 -27 22 -144 4 -183
-14 -31 -62 -35 -78 -6 -17 33 -13 171 7 193 22 24 49 23 67 -4z"/>
<path d="M227 673 c-2 -4 -12 -33 -22 -63 -9 -30 -51 -124 -93 -207 -63 -126
-76 -162 -79 -210 -5 -76 18 -122 69 -141 33 -13 41 -12 75 4 25 13 46 34 63
64 24 45 25 46 23 300 -2 214 -4 255 -17 258 -8 2 -16 -1 -19 -5z"/>
<path d="M1337 585 c-94 -35 -147 -112 -147 -215 1 -134 94 -220 240 -220 94
0 173 38 205 100 28 55 23 60 -61 60 -69 0 -78 -2 -96 -25 -11 -14 -29 -25
-42 -25 -33 0 -66 28 -66 56 l0 24 146 0 146 0 -7 48 c-9 63 -36 121 -71 154
-58 54 -166 72 -247 43z"/>
</g>
</svg>
